<mxfile host="Electron" agent="Mozilla/5.0 (Windows NT 10.0; Win64; x64) AppleWebKit/537.36 (KHTML, like Gecko) draw.io/26.0.9 Chrome/128.0.6613.186 Electron/32.2.5 Safari/537.36" version="26.0.9">
  <diagram name="Страница — 1" id="MsxkK7hVj3ATyVxU1vGl">
    <mxGraphModel dx="1434" dy="884" grid="1" gridSize="10" guides="1" tooltips="1" connect="1" arrows="1" fold="1" page="1" pageScale="1" pageWidth="827" pageHeight="1169" math="0" shadow="0">
      <root>
        <mxCell id="0" />
        <mxCell id="1" parent="0" />
        <mxCell id="vSXSuInnl_k44_p8eN2E-2" value="Уведомления" style="shape=module;align=left;spacingLeft=20;align=center;verticalAlign=top;whiteSpace=wrap;html=1;" vertex="1" parent="1">
          <mxGeometry x="80" y="280" width="100" height="50" as="geometry" />
        </mxCell>
        <mxCell id="vSXSuInnl_k44_p8eN2E-3" value="Аукцион" style="shape=module;align=left;spacingLeft=20;align=center;verticalAlign=top;whiteSpace=wrap;html=1;" vertex="1" parent="1">
          <mxGeometry x="80" y="195" width="100" height="50" as="geometry" />
        </mxCell>
        <mxCell id="vSXSuInnl_k44_p8eN2E-4" value="Управление доступом" style="shape=module;align=left;spacingLeft=20;align=center;verticalAlign=top;whiteSpace=wrap;html=1;" vertex="1" parent="1">
          <mxGeometry x="80" y="90" width="100" height="50" as="geometry" />
        </mxCell>
        <mxCell id="vSXSuInnl_k44_p8eN2E-5" value="Введение журнала" style="shape=module;align=left;spacingLeft=20;align=center;verticalAlign=top;whiteSpace=wrap;html=1;" vertex="1" parent="1">
          <mxGeometry x="80" y="370" width="100" height="50" as="geometry" />
        </mxCell>
        <mxCell id="vSXSuInnl_k44_p8eN2E-6" value="" style="shape=folder;fontStyle=1;spacingTop=10;tabWidth=40;tabHeight=14;tabPosition=left;html=1;whiteSpace=wrap;" vertex="1" parent="1">
          <mxGeometry x="360" y="40" width="430" height="400" as="geometry" />
        </mxCell>
        <mxCell id="vSXSuInnl_k44_p8eN2E-7" value="БД участники" style="shape=folder;fontStyle=1;spacingTop=10;tabWidth=40;tabHeight=14;tabPosition=left;html=1;whiteSpace=wrap;" vertex="1" parent="1">
          <mxGeometry x="420" y="75" width="140" height="80" as="geometry" />
        </mxCell>
        <mxCell id="vSXSuInnl_k44_p8eN2E-8" value="БД лоты" style="shape=folder;fontStyle=1;spacingTop=10;tabWidth=40;tabHeight=14;tabPosition=left;html=1;whiteSpace=wrap;" vertex="1" parent="1">
          <mxGeometry x="420" y="180" width="140" height="80" as="geometry" />
        </mxCell>
        <mxCell id="vSXSuInnl_k44_p8eN2E-9" value="БД журнал торгов" style="shape=folder;fontStyle=1;spacingTop=10;tabWidth=40;tabHeight=14;tabPosition=left;html=1;whiteSpace=wrap;" vertex="1" parent="1">
          <mxGeometry x="420" y="310" width="140" height="90" as="geometry" />
        </mxCell>
        <mxCell id="vSXSuInnl_k44_p8eN2E-10" value="Use" style="endArrow=open;endSize=12;dashed=1;html=1;rounded=0;exitX=1;exitY=0.5;exitDx=0;exitDy=0;entryX=-0.021;entryY=0.5;entryDx=0;entryDy=0;entryPerimeter=0;" edge="1" parent="1" source="vSXSuInnl_k44_p8eN2E-4" target="vSXSuInnl_k44_p8eN2E-7">
          <mxGeometry width="160" relative="1" as="geometry">
            <mxPoint x="-50" y="440" as="sourcePoint" />
            <mxPoint x="110" y="440" as="targetPoint" />
          </mxGeometry>
        </mxCell>
        <mxCell id="vSXSuInnl_k44_p8eN2E-12" value="Use" style="endArrow=open;endSize=12;dashed=1;html=1;rounded=0;exitX=1;exitY=0.5;exitDx=0;exitDy=0;" edge="1" parent="1" source="vSXSuInnl_k44_p8eN2E-3" target="vSXSuInnl_k44_p8eN2E-8">
          <mxGeometry width="160" relative="1" as="geometry">
            <mxPoint x="330" y="450" as="sourcePoint" />
            <mxPoint x="490" y="450" as="targetPoint" />
          </mxGeometry>
        </mxCell>
        <mxCell id="vSXSuInnl_k44_p8eN2E-14" value="Use" style="endArrow=open;endSize=12;dashed=1;html=1;rounded=0;exitX=1;exitY=0.5;exitDx=0;exitDy=0;entryX=0;entryY=0;entryDx=0;entryDy=52;entryPerimeter=0;" edge="1" parent="1" source="vSXSuInnl_k44_p8eN2E-5" target="vSXSuInnl_k44_p8eN2E-9">
          <mxGeometry width="160" relative="1" as="geometry">
            <mxPoint x="330" y="450" as="sourcePoint" />
            <mxPoint x="490" y="450" as="targetPoint" />
          </mxGeometry>
        </mxCell>
        <mxCell id="vSXSuInnl_k44_p8eN2E-16" value="Use" style="endArrow=open;endSize=12;dashed=1;html=1;rounded=0;exitX=1;exitY=0.5;exitDx=0;exitDy=0;entryX=0;entryY=0;entryDx=0;entryDy=47;entryPerimeter=0;" edge="1" parent="1">
          <mxGeometry width="160" relative="1" as="geometry">
            <mxPoint x="180" y="310" as="sourcePoint" />
            <mxPoint x="420" y="232" as="targetPoint" />
          </mxGeometry>
        </mxCell>
        <mxCell id="vSXSuInnl_k44_p8eN2E-17" value="Use" style="endArrow=open;endSize=12;dashed=1;html=1;rounded=0;exitX=1;exitY=0.5;exitDx=0;exitDy=0;entryX=0.014;entryY=0.713;entryDx=0;entryDy=0;entryPerimeter=0;" edge="1" parent="1" source="vSXSuInnl_k44_p8eN2E-5" target="vSXSuInnl_k44_p8eN2E-8">
          <mxGeometry width="160" relative="1" as="geometry">
            <mxPoint x="330" y="450" as="sourcePoint" />
            <mxPoint x="490" y="450" as="targetPoint" />
          </mxGeometry>
        </mxCell>
        <mxCell id="vSXSuInnl_k44_p8eN2E-18" value="Use" style="endArrow=open;endSize=12;dashed=1;html=1;rounded=0;exitX=1;exitY=0.5;exitDx=0;exitDy=0;entryX=0;entryY=0;entryDx=0;entryDy=47;entryPerimeter=0;" edge="1" parent="1">
          <mxGeometry width="160" relative="1" as="geometry">
            <mxPoint x="170" y="393" as="sourcePoint" />
            <mxPoint x="410" y="120" as="targetPoint" />
          </mxGeometry>
        </mxCell>
        <mxCell id="vSXSuInnl_k44_p8eN2E-21" value="Use" style="endArrow=open;endSize=12;dashed=1;html=1;rounded=0;edgeStyle=isometricEdgeStyle;exitX=1.007;exitY=0.688;exitDx=0;exitDy=0;exitPerimeter=0;entryX=0;entryY=0;entryDx=140;entryDy=52;entryPerimeter=0;" edge="1" parent="1" source="vSXSuInnl_k44_p8eN2E-7" target="vSXSuInnl_k44_p8eN2E-9">
          <mxGeometry width="160" relative="1" as="geometry">
            <mxPoint x="1019.48" y="116" as="sourcePoint" />
            <mxPoint x="830" y="590" as="targetPoint" />
            <Array as="points">
              <mxPoint x="640" y="180" />
            </Array>
          </mxGeometry>
        </mxCell>
        <mxCell id="vSXSuInnl_k44_p8eN2E-22" value="Use" style="endArrow=open;endSize=12;dashed=1;html=1;rounded=0;edgeStyle=orthogonalEdgeStyle;exitX=0;exitY=0;exitDx=140;exitDy=47;exitPerimeter=0;entryX=0;entryY=0;entryDx=140;entryDy=33;entryPerimeter=0;" edge="1" parent="1" source="vSXSuInnl_k44_p8eN2E-8" target="vSXSuInnl_k44_p8eN2E-9">
          <mxGeometry width="160" relative="1" as="geometry">
            <mxPoint x="600" y="290" as="sourcePoint" />
            <mxPoint x="760" y="290" as="targetPoint" />
            <Array as="points">
              <mxPoint x="660" y="227" />
              <mxPoint x="660" y="290" />
              <mxPoint x="560" y="290" />
            </Array>
          </mxGeometry>
        </mxCell>
      </root>
    </mxGraphModel>
  </diagram>
</mxfile>
